<svg id="Capa_1" data-name="Capa 1" xmlns="http://www.w3.org/2000/svg" viewBox="0 0 424.968 300.266"><defs><style>.cls-1{fill:#818181;}.cls-2{fill:#828282;}</style></defs><path class="cls-1" d="M437.6,363.1c2.929,5.162,4.151,10.042,2.54,15.235-2.272,7.327-7.413,11.512-14.921,12.315-6.926.74-12.5-2.169-16.18-8.058-3.788-6.054-3.725-12.389.188-18.351a7.034,7.034,0,0,0,1.037-6.209c-7.616-31.264-16.085-62.308-24.069-93.476-.674-2.629-1.767-3.366-4.321-3.226-4.237.232-8.493.125-12.74.161-.5,0-1.172-.2-1.474.049-5.069,4.157-10.733.32-16.114,1.158-5.617.874-11.465.265-17.164-.634a7.042,7.042,0,0,1-2.877-.74c-3.872-2.718-6.368-.351-9.075,2.078-4.987,4.475-6.815,10.628-9.078,16.548-.677,1.772.334,3.38,1.117,4.964A320.662,320.662,0,0,1,327.8,314.6c2.388,6.4,1.936,11.913-2.047,17.591-5.443,7.759-10.664,15.681-15.555,23.827-4.1,6.827-4.9,14.581-7.255,21.89-.652,2.023.936,2.655,2.337,3.18a46.322,46.322,0,0,0,14.532,3.275c1.971.075,4.539-.172,4.655,2.532s-2.4,3.176-4.55,3.418c-3.253.365-6.463-.311-9.695-.556-6.632-.5-13.206.439-19.784,1.122-4.845.5-5.134.306-5.448-4.421a42.012,42.012,0,0,1,3.222-20.115c4.371-9.926,7.091-20.522,12.128-30.187.115-.22.129-.52.29-.685,5.971-6.1,3.937-12.611,1.009-19.185-1-2.242-1.516-4.727-3.5-6.86-2.02,5.42-3.886,10.606-5.885,15.739a44.963,44.963,0,0,1-6.984,12.34c-2.385,2.911-5.244,4.282-9.207,3.461-8.741-1.812-16.846-5.433-25.123-8.54a106.176,106.176,0,0,0-24.532-6.438,5.541,5.541,0,0,0-2.934.114c-6.361,3.211-12.8,6.365-16.333,13.125-.555,1.062-.908,2.554-2.529,2.327-1.391-.194-1.949-1.445-2.439-2.605a15.889,15.889,0,0,1,.714-14.106,118.99,118.99,0,0,1,11.016-17.379c3.731-4.805,5.943-5.422,10.575-1.676,5.52,4.465,12.018,4.7,18.407,5.85,9.312,1.677,18.711,3.105,27.389,8.414.306-4.047.759-7.815.838-11.591.146-7.063.993-14.1-.564-21.19-2.216-10.087.182-19.289,6.52-27.481.952-1.23,2.188-2.382,2.444-4.171-4.517-1.647-9.372-.526-14.6-1.961,8.719-4.2,16.8-8.062,24.609-12.451a15.235,15.235,0,0,0,4.723-4.137c5.336-6.934,10.089-14.266,15.033-21.472a38.464,38.464,0,0,1,24.2-16.415c6.006-1.3,6.038-1.158,6.038-7.6,0-1.75-.03-3.5.006-5.248.121-5.809.947-11.528,6.637-14.551,6-3.19,12.128-2.016,17.907,1.084a12.231,12.231,0,0,1,5.773,7.109c.38,1.11,1.223,2.481-.991,2.731-.277.031-.774.526-.733.62,1.519,3.562-.493,7.345.711,10.924.6,1.768,1.926,3.321-1.327,4.645-1.495.609-2.3,4.219-2.451,6.529-.27,4.213-2.622,3.906-5.4,3.155-4.765-1.29-11.653,3.686-11.753,8.677-.174,8.674-1.568,16.886-7.722,23.626-1.782,1.952-.422,3.828.981,5.269,3.52,3.614,8.042,4.851,12.938,4.891,3,.024,5.991-.183,8.986-.165,2.166.012,4.306.281,5.279,2.7.648,1.613,2.069,1.127,3.232,1.129,5.372.011,10.748.051,16.115-.134,2.153-.074,3.088.616,3.571,2.726,1.111,4.86,2.564,9.642,3.7,14.5.5,2.146,1.347,3.041,3.748,3.025,38.725-.259,77.451-.392,116.176-.611,6.114-.035,6.14-.156,4.625,5.651-4.534,17.378-9.141,34.737-13.581,52.138-.64,2.506-1.893,2.917-4.195,2.911q-42.923-.109-85.847-.047h-4.438c1.617,6.6,3.2,12.865,4.667,19.157.576,2.471,2.384,2.1,4.1,2.1,16.12,0,32.24-.025,48.36.018,4.239.011,8.48.183,12.717.368,9.225.4,16.7,8.732,16.01,17.774-.751,9.815-9.148,17.409-18.256,16.51-10.228-1.01-17.29-9.525-15.933-19.27a19.829,19.829,0,0,1,1-4.349c1.569-4.091,1.625-4.072-2.946-4.073C453.582,363.1,445.97,363.1,437.6,363.1Zm19.66-47.9c0,4.005.054,7.373-.024,10.737-.037,1.574.46,2.22,2.122,2.2,5.859-.074,11.719-.035,17.579-.026,1.085,0,1.816-.206,2.139-1.5,1.686-6.759,3.476-13.493,5.241-20.232.454-1.734.011-2.48-1.969-2.408-4.482.163-8.973.093-13.459.162-3.718.057-8.679-1.241-10.826.642C455.586,306.949,457.614,312.037,457.264,315.2Zm14.267-15.48v-.208c3.991,0,7.984-.08,11.971.035,1.9.055,2.883-.411,3.331-2.476.975-4.5,2.184-8.951,3.487-13.366.623-2.111.3-2.82-2.055-2.762q-14.2.348-28.414.377c-2.285,0-2.666.979-2.62,2.924.1,4.239.177,8.488-.024,12.72-.12,2.52,1.009,2.861,3.1,2.791C464.046,299.632,467.79,299.723,471.531,299.723ZM437.4,281.154c-4.37,0-8.74.048-13.108-.022-1.907-.03-2.347.525-1.785,2.434q2.109,7.17,3.8,14.457c.384,1.635,1.007,2.322,2.722,2.265,7.1-.237,14.21-.46,21.316-.513,2.081-.015,2.483-.845,2.442-2.676-.1-4.367-.162-8.743.02-13.1.1-2.424-.873-2.951-3.052-2.88C445.638,281.25,441.515,281.153,437.4,281.154Zm15.1,35.329h.262c0-3.237-.089-6.477.033-9.709.074-1.941-.583-2.639-2.555-2.569-6.336.228-12.676.383-19.016.429-2.4.018-3.035.9-2.394,3.163,1.287,4.54,2.469,9.111,3.648,13.681,1.712,6.632,1.7,6.727,8.6,6.6,3.8-.069,8.9,1.687,11.039-.785C453.946,325.165,452.491,320.2,452.491,316.483Zm-22.939,11.626c-1.915-7.387-3.727-14.353-5.522-21.322a2.3,2.3,0,0,0-2.587-2.042c-5.108.122-10.219.132-15.328.126-1.925,0-2.338.82-1.859,2.578,1.7,6.24,3.364,12.49,4.939,18.762.329,1.307.835,1.923,2.222,1.914C417.359,328.087,423.3,328.109,429.552,328.109Zm62.059,0c1.992,0,3.989-.094,5.974.029,1.607.1,2.544-.355,2.967-2.018,1.715-6.74,3.494-13.465,5.289-20.185.476-1.784-.038-2.536-1.947-2.473-3.731.124-7.47.268-11.2.132-2.315-.084-3.34.8-3.842,2.986-1.028,4.477-2.231,8.914-3.4,13.358C483.307,328.116,483.3,328.114,491.611,328.113Zm-79.5-27.745c2.5,0,5-.08,7.489.026,1.926.083,2.778-.354,2.166-2.516q-1.988-7.01-3.692-14.1c-.474-1.956-1.548-2.518-3.466-2.446-4.363.165-8.744.35-13.1.129-3.492-.177-4.121.982-2.907,4.042a51.959,51.959,0,0,1,1.544,5.772C402.613,300.471,402.615,300.47,412.112,300.368Zm21.972,73.291a10.617,10.617,0,0,0-10.232-10.751,10.581,10.581,0,1,0-.3,21.159A10.515,10.515,0,0,0,434.084,373.659Zm56.395-.329a10.5,10.5,0,0,0-10.491-10.4,10.563,10.563,0,1,0,.321,21.121A10.5,10.5,0,0,0,490.479,373.33Zm13.244-92.341a17.791,17.791,0,0,1-2.985-.025c-3.883-.674-5.994.693-6.453,4.8a54.139,54.139,0,0,1-1.794,7.23c-1.655,6.465-1.654,6.466,4.881,6.36,10.193-.165,10.193-.165,12.8-9.935C512.426,280.989,512.426,280.989,503.723,280.989Z" transform="translate(-147.516 -169.896)"/><path class="cls-2" d="M256.057,430.475c2.916-7.1,5.613-13.261,7.96-19.55,1.332-3.567,3.727-4.236,7.067-3.852,3.385.39,4.02,2.476,4.246,5.443,1.363,17.952,1.176,35.929,1.162,53.907,0,2.433-1.093,3.418-3.421,3.285-1.245-.071-2.5-.048-3.736-.179-2.918-.311-4.25-1.673-4.193-4.909.19-10.809.072-21.624.072-32.758-3.8,2.3-2.613,8.417-8.859,8.595-6.216.177-5.955-4.907-8.525-7.778-1.224.655-.637,1.771-.641,2.606-.052,10.114-.139,20.231.024,30.343.052,3.218-1.263,4.153-4.208,4.1-6.121-.105-7.059-.971-7.059-7.116q0-24.724-.006-49.45c0-2.627-.464-5.333,3.292-6.026,4.368-.806,7.907.6,9.317,4.136C250.991,417.409,253.362,423.571,256.057,430.475Z" transform="translate(-147.516 -169.896)"/><path class="cls-2" d="M229.3,438.314a91.772,91.772,0,0,1-.737,13.433c-1.869,13.642-9.594,19.576-23.388,17.8-10.89-1.4-15.326-6.189-16.912-18.849a93.612,93.612,0,0,1,.589-28.323c1.859-10.351,7.018-14.837,17.564-15.354a42.926,42.926,0,0,1,8.2.5c6.361.907,10.43,4.446,12.384,10.449C229.147,424.581,229.4,431.434,229.3,438.314Zm-12.789-.355c.024-6.089.538-12.219-.7-18.254-.326-1.586-.585-3.26-2.405-3.9-5.076-1.793-11.067,1.127-11.989,6.388-2.059,11.747-1.545,23.553.17,35.314a3.421,3.421,0,0,0,2.7,3.187c6.785,1.558,11.775-1.944,12.178-8.907C216.725,447.19,216.51,442.569,216.51,437.959Z" transform="translate(-147.516 -169.896)"/><path class="cls-1" d="M321.53,437.985c0-8.738.122-17.479-.074-26.212-.061-2.7.725-3.819,3.379-4.01,5.717-.411,11.388-1.23,17.158-.27,8.32,1.385,12.247,4.994,13.018,13.406.7,7.691.46,15.345-6.044,21.051-1.509,1.324-.448,2.492.06,3.662,2.88,6.632,5.837,13.229,8.7,19.867,1.53,3.547,1.059,4.21-2.687,4.217-4.763.008-8.272-1.417-9.965-6.556-1.708-5.187-4.441-10.029-6.373-15.154-1.087-2.885-3.149-2.261-5.166-2.193-2.763.093-1.746,2.289-1.774,3.658-.112,5.365-.1,10.735-.028,16.1.036,2.649-.6,4.28-3.746,4.187-4.386-.13-6.41-1.275-6.434-4.418C321.486,456.21,321.531,447.1,321.53,437.985Zm9.981-12.314c0,2.242-.015,4.483.007,6.725.009.856-.031,1.707,1.011,2.172,2.825,1.263,8.983-.812,10.231-3.506,2.125-4.585.912-12.833-2.157-14.17a7.029,7.029,0,0,0-2.567-.281c-6.529-.15-6.529-.143-6.53,6.445C331.506,423.928,331.506,424.8,331.511,425.671Z" transform="translate(-147.516 -169.896)"/><path class="cls-2" d="M488.876,431.907c0-7.694.075-14.068-.033-20.439-.051-3.013,1.294-4.421,4.2-4.458,2.834-.036,5.923-.059,6.133,3.789.776,14.205,2.009,28.4.085,42.635-2.328,17.229-15.133,18.149-25.762,14.777-5-1.585-7.3-5.766-8.661-10.543a57.668,57.668,0,0,1-1.848-14.832c-.176-10.118-.089-20.241-.12-30.362-.01-3.34,1.129-5.516,4.952-5.5,4.012.013,5.565,1.266,5.774,5.626.6,12.6,1.069,25.211,1.6,37.817a17.754,17.754,0,0,0,.318,3.724c.608,2.323-.032,5.486,4.113,5.435,5.3-.065,7.618-1.273,8.422-5.431C489.557,446.341,488.536,438.436,488.876,431.907Z" transform="translate(-147.516 -169.896)"/><path class="cls-2" d="M397.9,469.706c-5.653-.1-6.916-1.12-7.833-6.227-.639-3.556-1.295-7.115-1.731-10.7-.227-1.869-.974-2.472-2.837-2.574-8.836-.487-8.829-.541-9.984,8.17-.229,1.729-.546,3.447-.759,5.178-.735,5.974-4.35,7.969-10.034,5.694-2.271-.909-2.033-2.542-1.736-4.3q3.825-22.671,7.683-45.337c.523-3.071,1.174-6.121,1.623-9.2a3.021,3.021,0,0,1,2.846-2.868,45.666,45.666,0,0,1,10.816-.524c2.62.146,4.115,1.386,4.8,4.244,4.282,17.955,7.34,36.132,10.342,54.326C401.618,468.778,400.855,470.175,397.9,469.706Zm-15.777-50.854-.439.023c-.855,5.4-1.681,10.809-2.573,16.206-.926,5.6-.224,6.307,5.266,5.489,1.354-.2,1.7-.7,1.464-1.928Q383.967,428.75,382.122,418.852Z" transform="translate(-147.516 -169.896)"/><path class="cls-2" d="M295.418,407.007c17.824-.179,23.382,6.949,21.227,24.454-1.14,9.256-6.559,13.207-17.352,14.138-5.7.492-5.7.492-5.7,6.294,0,4.616-.074,9.233.023,13.847.055,2.588-.79,4.183-3.6,3.938-2.756-.241-6.047.276-6.591-3.819a14.388,14.388,0,0,1-.021-1.87c0-17.34.073-34.681-.073-52.021-.024-2.852.837-4.062,3.608-4.23C290.291,407.535,293.639,407.165,295.418,407.007Zm-1.826,18.744c0,2.112-.016,4.224.008,6.336.01.846-.173,1.791.69,2.38,2.4,1.642,9.574-.455,10.487-3.161a16.731,16.731,0,0,0-.522-12,3.944,3.944,0,0,0-3.935-2.75c-6.733-.206-6.731-.3-6.731,6.589Q293.589,424.447,293.592,425.751Z" transform="translate(-147.516 -169.896)"/><path class="cls-2" d="M160.206,438.789c.291,4.611.4,9.243.92,13.828.637,5.612,2.46,7.059,8.121,6.952,2.62-.05,5.241-.228,7.855-.439,1.849-.149,3.826-.868,4.585,1.777.861,3-.213,7.022-2.431,7.485-7.521,1.567-15.1,2.469-22.335-1.232-4.921-2.518-6.817-7.153-7.79-12.177a87.739,87.739,0,0,1,0-33.511c1.784-9.255,5.961-13.039,15.315-14.214a30.442,30.442,0,0,1,15.479,1.593c2.119.856,3.01,2.2,2.059,4.359-.937,2.132-.9,5.277-4.566,4.847-2.6-.3-5.19-.762-7.8-.937-5.492-.367-7.187.867-8.195,6.357A95.462,95.462,0,0,0,160.206,438.789Z" transform="translate(-147.516 -169.896)"/><path class="cls-2" d="M428.123,438.282c0-8.994.065-17.989-.045-26.982-.028-2.247.571-3.043,2.924-3.006,8.243.131,16.489.042,24.734.061,2.285,0,4.276.374,4.336,3.377.077,3.911-1.239,6.084-4.362,6.207-4.616.181-9.254.265-13.86,0-3.036-.173-3.643,1-3.279,3.663a62.525,62.525,0,0,1,.566,7.841c.02,2,.873,2.549,2.731,2.51,4.246-.089,8.494-.02,12.742-.024,2.585,0,4.762.329,4.688,3.786-.1,4.453-1.093,5.957-4.767,6.067-3.869.116-7.752.185-11.614-.02-2.719-.145-3.737.589-3.649,3.506.211,6.989-.035,13.991.12,20.983.059,2.663-.935,3.68-3.469,3.448-.248-.022-.5-.008-.75-.012-7.044-.128-7.046-.13-7.046-7.047Z" transform="translate(-147.516 -169.896)"/><path class="cls-1" d="M507.033,437.992c0-8.609.073-17.22-.037-25.829-.042-3.244.684-5.338,4.5-5.2,4.2.153,5.5,1.241,5.714,5.115.789,14.328,1.364,28.664,1.137,43.014-.043,2.752.656,3.786,3.532,3.6,3.728-.244,7.483-.046,11.227-.061,2.672-.01,4.623.563,4.534,3.938-.117,4.417-.912,5.725-4.459,5.754-7.486.062-14.975-.064-22.46.063-2.838.048-3.729-1.194-3.711-3.813C507.07,455.712,507.033,446.852,507.033,437.992Z" transform="translate(-147.516 -169.896)"/><path class="cls-1" d="M541.9,437.973c0-8.865.092-17.731-.051-26.594-.048-2.994.932-4.405,4.012-4.41,4.149,0,5.676,1.062,5.914,4.406,1.035,14.576,1.548,29.17,1.255,43.778-.056,2.812.734,3.718,3.551,3.537,3.73-.24,7.488-.033,11.234-.065,2.679-.022,4.716.575,4.67,3.881-.059,4.3-1.222,5.8-4.941,5.823-7.241.043-14.488-.139-21.723.08-3.311.1-4.013-1.275-3.969-4.217C541.981,455.454,541.9,446.713,541.9,437.973Z" transform="translate(-147.516 -169.896)"/></svg>